<mxfile host="app.diagrams.net" agent="Mozilla/5.0 (Windows NT 10.0; Win64; x64) AppleWebKit/537.36 (KHTML, like Gecko) Chrome/136.0.0.0 Safari/537.36" version="27.0.9">
  <diagram id="er_diagram" name="旅游景区信息管理系统ER图">
    <mxGraphModel dx="1554" dy="935" grid="1" gridSize="10" guides="1" tooltips="1" connect="1" arrows="1" fold="1" page="1" pageScale="1" pageWidth="850" pageHeight="1100" math="0" shadow="0">
      <root>
        <mxCell id="0" />
        <mxCell id="1" parent="0" />
        <mxCell id="9" value="&lt;font style=&quot;font-size: 16px;&quot;&gt;1:N&lt;/font&gt;" style="edgeStyle=orthogonalEdgeStyle;rounded=0;html=1;jettySize=auto;orthogonalLoop=1;endArrow=diamond;endFill=1;" parent="1" source="2" target="3" edge="1">
          <mxGeometry relative="1" as="geometry">
            <mxPoint x="270" y="130" as="sourcePoint" />
            <mxPoint x="330" y="130" as="targetPoint" />
          </mxGeometry>
        </mxCell>
        <mxCell id="10" value="&lt;font style=&quot;font-size: 16px;&quot;&gt;1:N&lt;/font&gt;" style="edgeStyle=orthogonalEdgeStyle;rounded=0;html=1;jettySize=auto;orthogonalLoop=1;endArrow=diamond;endFill=1;" parent="1" source="2" target="5" edge="1">
          <mxGeometry relative="1" as="geometry">
            <mxPoint x="160" y="210" as="sourcePoint" />
            <mxPoint x="160" y="300" as="targetPoint" />
          </mxGeometry>
        </mxCell>
        <mxCell id="11" value="&lt;font style=&quot;font-size: 16px;&quot;&gt;1:N&lt;/font&gt;" style="edgeStyle=orthogonalEdgeStyle;rounded=0;html=1;jettySize=auto;orthogonalLoop=1;endArrow=diamond;endFill=1;" parent="1" source="4" target="6" edge="1">
          <mxGeometry relative="1" as="geometry">
            <mxPoint x="550" y="210" as="sourcePoint" />
            <mxPoint x="440" y="300" as="targetPoint" />
          </mxGeometry>
        </mxCell>
        <mxCell id="12" value="1:N" style="edgeStyle=orthogonalEdgeStyle;rounded=0;html=1;jettySize=auto;orthogonalLoop=1;endArrow=diamond;endFill=1;entryX=0.5;entryY=1;entryDx=0;entryDy=0;exitX=0.5;exitY=0;exitDx=0;exitDy=0;" parent="1" source="5" target="Z0AQmfB6-XfJlNwtBJik-15" edge="1">
          <mxGeometry relative="1" as="geometry">
            <mxPoint x="440" y="460" as="sourcePoint" />
            <mxPoint x="540" y="300" as="targetPoint" />
            <Array as="points">
              <mxPoint x="460" y="310" />
              <mxPoint x="460" y="310" />
            </Array>
          </mxGeometry>
        </mxCell>
        <mxCell id="13" value="&lt;font style=&quot;font-size: 16px;&quot;&gt;1:N&lt;/font&gt;" style="edgeStyle=orthogonalEdgeStyle;rounded=0;html=1;jettySize=auto;orthogonalLoop=1;endArrow=diamond;endFill=1;" parent="1" source="4" target="7" edge="1">
          <mxGeometry relative="1" as="geometry">
            <mxPoint x="720" y="210" as="sourcePoint" />
            <mxPoint x="720" y="300" as="targetPoint" />
          </mxGeometry>
        </mxCell>
        <mxCell id="14" value="&lt;font style=&quot;font-size: 16px;&quot;&gt;1:N&lt;/font&gt;" style="edgeStyle=orthogonalEdgeStyle;rounded=0;html=1;jettySize=auto;orthogonalLoop=1;endArrow=diamond;endFill=1;" parent="1" source="2" target="7" edge="1">
          <mxGeometry relative="1" as="geometry">
            <mxPoint x="160" y="210" as="sourcePoint" />
            <mxPoint x="720" y="340" as="targetPoint" />
            <Array as="waypoints">
              <mxPoint x="160" y="340" />
            </Array>
          </mxGeometry>
        </mxCell>
        <mxCell id="15" value="&lt;font style=&quot;font-size: 16px;&quot;&gt;1:N&lt;/font&gt;" style="edgeStyle=orthogonalEdgeStyle;rounded=0;html=1;jettySize=auto;orthogonalLoop=1;endArrow=diamond;endFill=1;" parent="1" source="4" edge="1">
          <mxGeometry relative="1" as="geometry">
            <mxPoint x="830" y="210" as="sourcePoint" />
            <mxPoint x="1000" y="180" as="targetPoint" />
          </mxGeometry>
        </mxCell>
        <mxCell id="LYH5F99DVlFDBM0IMPib-20" value="" style="group" parent="1" vertex="1" connectable="0">
          <mxGeometry x="40" y="80" width="200" height="200" as="geometry" />
        </mxCell>
        <mxCell id="3" value="&lt;b&gt;&lt;font style=&quot;font-size: 16px;&quot;&gt;facilities&lt;/font&gt;&lt;/b&gt;" style="shape=table;startSize=30;container=1;collapsible=0;childLayout=tableLayout;fontSize=10;whiteSpace=wrap;html=1;" parent="LYH5F99DVlFDBM0IMPib-20" vertex="1">
          <mxGeometry width="200" height="200" as="geometry" />
        </mxCell>
        <mxCell id="LYH5F99DVlFDBM0IMPib-19" value="&lt;font style=&quot;font-size: 16px;&quot;&gt;id: int (PK)&lt;br style=&quot;&quot;&gt;name: varchar(100)&lt;br style=&quot;&quot;&gt;location: varchar(255)&lt;br style=&quot;&quot;&gt;status: varchar(20)&lt;br style=&quot;&quot;&gt;attraction_id: int (FK)&lt;br style=&quot;&quot;&gt;created_at: datetime&lt;br style=&quot;&quot;&gt;updated_at: datetime&lt;/font&gt;" style="text;strokeColor=none;align=center;fillColor=none;html=1;verticalAlign=middle;whiteSpace=wrap;rounded=0;" parent="LYH5F99DVlFDBM0IMPib-20" vertex="1">
          <mxGeometry x="4.545454545454545" y="50" width="190.9090909090909" height="137.5" as="geometry" />
        </mxCell>
        <mxCell id="LYH5F99DVlFDBM0IMPib-27" value="" style="group" parent="1" vertex="1" connectable="0">
          <mxGeometry x="360" y="80" width="200" height="200" as="geometry" />
        </mxCell>
        <mxCell id="6" value="&lt;b&gt;&lt;font style=&quot;font-size: 16px;&quot;&gt;orders&lt;/font&gt;&lt;/b&gt;" style="shape=table;startSize=30;container=1;collapsible=0;childLayout=tableLayout;fontSize=10;whiteSpace=wrap;html=1;" parent="LYH5F99DVlFDBM0IMPib-27" vertex="1">
          <mxGeometry width="200" height="200" as="geometry" />
        </mxCell>
        <mxCell id="Z0AQmfB6-XfJlNwtBJik-15" value="&lt;font style=&quot;font-size: 16px;&quot;&gt;id: int (PK)&lt;br style=&quot;&quot;&gt;user_id: int (FK)&lt;br style=&quot;&quot;&gt;ticket_id: int (FK)&lt;br style=&quot;&quot;&gt;quantity: int&lt;br style=&quot;&quot;&gt;total_price: decimal(10,2)&lt;br style=&quot;&quot;&gt;date: date&lt;br style=&quot;&quot;&gt;status: varchar(20)&lt;br style=&quot;&quot;&gt;created_at: datetime&lt;br style=&quot;&quot;&gt;updated_at: datetime&lt;/font&gt;" style="text;strokeColor=none;align=center;fillColor=none;html=1;verticalAlign=middle;whiteSpace=wrap;rounded=0;" vertex="1" parent="6">
          <mxGeometry y="30" width="200" height="170" as="geometry" />
        </mxCell>
        <mxCell id="LYH5F99DVlFDBM0IMPib-28" value="" style="group" parent="1" vertex="1" connectable="0">
          <mxGeometry x="680" y="80" width="200" height="200" as="geometry" />
        </mxCell>
        <mxCell id="4" value="&lt;b&gt;&lt;font style=&quot;font-size: 16px;&quot;&gt;users&lt;/font&gt;&lt;/b&gt;" style="shape=table;startSize=30;container=1;collapsible=0;childLayout=tableLayout;fontSize=10;whiteSpace=wrap;html=1;" parent="LYH5F99DVlFDBM0IMPib-28" vertex="1">
          <mxGeometry width="200" height="200" as="geometry" />
        </mxCell>
        <mxCell id="LYH5F99DVlFDBM0IMPib-22" value="&lt;font style=&quot;font-size: 16px;&quot;&gt;id: int (PK)&lt;br style=&quot;&quot;&gt;username: varchar(50) (UNIQUE)&lt;br style=&quot;&quot;&gt;password_hash: varchar(255)&lt;br style=&quot;&quot;&gt;role: varchar(20)&lt;br style=&quot;&quot;&gt;created_at: datetime&lt;br style=&quot;&quot;&gt;updated_at: datetime&lt;/font&gt;" style="text;strokeColor=none;align=center;fillColor=none;html=1;verticalAlign=middle;whiteSpace=wrap;rounded=0;" parent="LYH5F99DVlFDBM0IMPib-28" vertex="1">
          <mxGeometry x="4.545454545454545" y="42.85714285714286" width="190.9090909090909" height="157.14285714285714" as="geometry" />
        </mxCell>
        <mxCell id="LYH5F99DVlFDBM0IMPib-29" value="" style="group" parent="1" vertex="1" connectable="0">
          <mxGeometry x="1000" y="80" width="200" height="230" as="geometry" />
        </mxCell>
        <mxCell id="8" value="&lt;b&gt;&lt;font style=&quot;font-size: 16px;&quot;&gt;logs&lt;/font&gt;&lt;/b&gt;" style="shape=table;startSize=30;container=1;collapsible=0;childLayout=tableLayout;fontSize=10;whiteSpace=wrap;html=1;" parent="LYH5F99DVlFDBM0IMPib-29" vertex="1">
          <mxGeometry width="200" height="230.00000000000003" as="geometry" />
        </mxCell>
        <mxCell id="LYH5F99DVlFDBM0IMPib-23" value="&lt;font style=&quot;font-size: 16px;&quot;&gt;id: int (PK)&lt;br style=&quot;&quot;&gt;user_id: int (FK)&lt;br style=&quot;&quot;&gt;action: varchar(50)&lt;br style=&quot;&quot;&gt;resource_type: varchar(50)&lt;br style=&quot;&quot;&gt;resource_id: int&lt;br style=&quot;&quot;&gt;details: json&lt;br style=&quot;&quot;&gt;ip_address: varchar(45)&lt;br style=&quot;&quot;&gt;user_agent: varchar(255)&lt;br style=&quot;&quot;&gt;created_at: datetime&lt;/font&gt;" style="text;strokeColor=none;align=center;fillColor=none;html=1;verticalAlign=middle;whiteSpace=wrap;rounded=0;" parent="LYH5F99DVlFDBM0IMPib-29" vertex="1">
          <mxGeometry x="4.545454545454545" y="46" width="190.9090909090909" height="172.5" as="geometry" />
        </mxCell>
        <mxCell id="LYH5F99DVlFDBM0IMPib-30" value="" style="group" parent="1" vertex="1" connectable="0">
          <mxGeometry x="360" y="340" width="200" height="200" as="geometry" />
        </mxCell>
        <mxCell id="5" value="&lt;b&gt;&lt;font style=&quot;font-size: 16px;&quot;&gt;tickets&lt;/font&gt;&lt;/b&gt;" style="shape=table;startSize=30;container=1;collapsible=0;childLayout=tableLayout;fontSize=10;whiteSpace=wrap;html=1;" parent="LYH5F99DVlFDBM0IMPib-30" vertex="1">
          <mxGeometry width="200" height="200" as="geometry" />
        </mxCell>
        <mxCell id="LYH5F99DVlFDBM0IMPib-25" value="&lt;font style=&quot;font-size: 16px;&quot;&gt;id: int (PK)&lt;br style=&quot;&quot;&gt;attraction_id: int (FK)&lt;br style=&quot;&quot;&gt;name: varchar(100)&lt;br style=&quot;&quot;&gt;price: decimal(10,2)&lt;br style=&quot;&quot;&gt;available: int&lt;br style=&quot;&quot;&gt;status: varchar(20)&lt;br style=&quot;&quot;&gt;created_at: datetime&lt;br style=&quot;&quot;&gt;updated_at: datetime&lt;/font&gt;" style="text;strokeColor=none;align=center;fillColor=none;html=1;verticalAlign=middle;whiteSpace=wrap;rounded=0;" parent="LYH5F99DVlFDBM0IMPib-30" vertex="1">
          <mxGeometry x="4.545454545454545" y="41.66666666666667" width="190.9090909090909" height="150" as="geometry" />
        </mxCell>
        <mxCell id="LYH5F99DVlFDBM0IMPib-31" value="" style="group" parent="1" vertex="1" connectable="0">
          <mxGeometry x="40" y="600" width="200" height="200" as="geometry" />
        </mxCell>
        <mxCell id="2" value="&lt;b&gt;&lt;font style=&quot;font-size: 16px;&quot;&gt;attractions&lt;/font&gt;&lt;/b&gt;" style="shape=table;startSize=30;container=1;collapsible=0;childLayout=tableLayout;fontSize=10;whiteSpace=wrap;html=1;" parent="LYH5F99DVlFDBM0IMPib-31" vertex="1">
          <mxGeometry width="200" height="200" as="geometry" />
        </mxCell>
        <mxCell id="LYH5F99DVlFDBM0IMPib-26" value="&lt;font style=&quot;font-size: 16px;&quot;&gt;id: int (PK)&lt;br style=&quot;&quot;&gt;name: varchar(100) (UNIQUE)&lt;br style=&quot;&quot;&gt;description: text&lt;br style=&quot;&quot;&gt;open_time: varchar(50)&lt;br style=&quot;&quot;&gt;image_url: varchar(255)&lt;br style=&quot;&quot;&gt;created_at: datetime&lt;br style=&quot;&quot;&gt;updated_at: datetime&lt;/font&gt;" style="text;strokeColor=none;align=center;fillColor=none;html=1;verticalAlign=middle;whiteSpace=wrap;rounded=0;" parent="LYH5F99DVlFDBM0IMPib-31" vertex="1">
          <mxGeometry x="4.545454545454545" y="44.44444444444444" width="190.9090909090909" height="144.44444444444446" as="geometry" />
        </mxCell>
        <mxCell id="LYH5F99DVlFDBM0IMPib-32" value="" style="group" parent="1" vertex="1" connectable="0">
          <mxGeometry x="680" y="600" width="200" height="200" as="geometry" />
        </mxCell>
        <mxCell id="7" value="&lt;b&gt;&lt;font style=&quot;font-size: 16px;&quot;&gt;feedback&lt;/font&gt;&lt;/b&gt;" style="shape=table;startSize=30;container=1;collapsible=0;childLayout=tableLayout;fontSize=10;whiteSpace=wrap;html=1;" parent="LYH5F99DVlFDBM0IMPib-32" vertex="1">
          <mxGeometry width="200" height="200" as="geometry" />
        </mxCell>
        <mxCell id="LYH5F99DVlFDBM0IMPib-24" value="&lt;font style=&quot;font-size: 16px;&quot;&gt;id: int (PK)&lt;br style=&quot;&quot;&gt;user_id: int (FK)&lt;br style=&quot;&quot;&gt;attraction_id: int (FK)&lt;br style=&quot;&quot;&gt;score: int (1-5)&lt;br style=&quot;&quot;&gt;comment: text&lt;br style=&quot;&quot;&gt;status: varchar(20)&lt;br style=&quot;&quot;&gt;created_at: datetime&lt;br style=&quot;&quot;&gt;updated_at: datetime&lt;/font&gt;" style="text;strokeColor=none;align=center;fillColor=none;html=1;verticalAlign=middle;whiteSpace=wrap;rounded=0;" parent="LYH5F99DVlFDBM0IMPib-32" vertex="1">
          <mxGeometry x="4.545454545454545" y="40" width="190.9090909090909" height="130" as="geometry" />
        </mxCell>
      </root>
    </mxGraphModel>
  </diagram>
</mxfile>
